<?xml version="1.0" encoding="utf-8"?>
<!-- Generator: Adobe Illustrator 21.0.0, SVG Export Plug-In . SVG Version: 6.00 Build 0)  -->
<svg version="1.1" id="Layer_1" xmlns="http://www.w3.org/2000/svg" xmlns:xlink="http://www.w3.org/1999/xlink" x="0px" y="0px"
	 viewBox="0 0 59 39" style="enable-background:new 0 0 59 39;" xml:space="preserve">
<style type="text/css">
	.st0{fill:none;stroke:#C1C1C1;stroke-width:4;stroke-linecap:square;stroke-miterlimit:10;}
	.st1{fill:none;stroke:#C1C1C1;stroke-width:2;stroke-linecap:square;stroke-miterlimit:10;}
</style>
<g>
	<g>
		<path class="st0" d="M3.9,4.5v28.3c0,1.1,0.9,2,2,2h46.2c1.1,0,2-0.9,2-2V4.5"/>
	</g>
	<g>
		<path class="st1" d="M47.3,8.1l-1.8,1.8c-0.8,0.8-2.1,0.8-2.8,0l-2.3-2.3c-0.8-0.8-2.1-0.8-2.8,0l-2.3,2.3c-0.8,0.8-2.1,0.8-2.8,0
			L30,7.6c-0.8-0.8-2.1-0.8-2.8,0l-2.3,2.3c-0.8,0.8-2.1,0.8-2.8,0l-2.3-2.3c-0.8-0.8-2.1-0.8-2.8,0l-2.3,2.3
			c-0.8,0.8-2.1,0.8-2.8,0L9.7,7.8"/>
	</g>
	<g>
		<path class="st1" d="M26.3,24.4c2.7,0,5.2-1.2,6.9-3.1c-1.7-1.9-4.2-3.1-6.9-3.1c-2.7,0-5.2,1.2-6.9,3.1
			C21.1,23.2,23.6,24.4,26.3,24.4z"/>
		<polygon class="st1" points="37.1,25.2 33.1,21.3 37.1,17.3 		"/>
	</g>
</g>
</svg>
