<?xml version="1.0" encoding="utf-8"?>
<!-- Generator: Adobe Illustrator 21.0.0, SVG Export Plug-In . SVG Version: 6.00 Build 0)  -->
<svg version="1.1" id="Layer_1" xmlns="http://www.w3.org/2000/svg" xmlns:xlink="http://www.w3.org/1999/xlink" x="0px" y="0px"
	 viewBox="0 0 66.5 56" style="enable-background:new 0 0 66.5 56;" xml:space="preserve">
<style type="text/css">
	.st0{fill:none;stroke:#C1C1C1;stroke-width:4;stroke-linecap:square;stroke-miterlimit:10;}
	.st1{fill:none;stroke:#C1C1C1;stroke-width:3;stroke-linecap:square;stroke-miterlimit:10;}
	.st2{fill:none;stroke:#C1C1C1;stroke-width:2;stroke-linecap:square;stroke-miterlimit:10;}
	.st3{fill:none;stroke:#C1C1C1;stroke-linecap:square;stroke-miterlimit:10;}
</style>
<g>
	<g>
		<path class="st0" d="M4.4,5.5V40c0,1.1,0.9,2,2,2h53.7c1.1,0,2-0.9,2-2V5.5"/>
	</g>
	<g>
		<path class="st1" d="M61.2,51v-2.5c0-1.1-0.9-2-2-2H6.4c-1.1,0-2,0.9-2,2V51"/>
	</g>
	<g>
		<line class="st2" x1="61.9" y1="10" x2="5.1" y2="10"/>
	</g>
	<g>
		<line class="st2" x1="61.9" y1="33" x2="5.1" y2="33"/>
	</g>
	<g>
		<line class="st3" x1="61.9" y1="36" x2="5.1" y2="36"/>
	</g>
	<g>
		<line class="st2" x1="13" y1="11" x2="13" y2="31.6"/>
	</g>
	<g>
		<line class="st2" x1="21" y1="11" x2="21" y2="31.6"/>
	</g>
	<g>
		<line class="st2" x1="29" y1="11" x2="29" y2="31.6"/>
	</g>
	<g>
		<line class="st2" x1="37" y1="11" x2="37" y2="31.6"/>
	</g>
	<g>
		<line class="st2" x1="45" y1="11" x2="45" y2="31.6"/>
	</g>
	<g>
		<line class="st2" x1="53" y1="11" x2="53" y2="31.6"/>
	</g>
</g>
</svg>
