<?xml version="1.0" encoding="utf-8"?>
<!-- Generator: Adobe Illustrator 21.0.0, SVG Export Plug-In . SVG Version: 6.00 Build 0)  -->
<svg version="1.1" id="Layer_1" xmlns="http://www.w3.org/2000/svg" xmlns:xlink="http://www.w3.org/1999/xlink" x="0px" y="0px"
	 viewBox="0 0 73 57" style="enable-background:new 0 0 73 57;" xml:space="preserve">
<style type="text/css">
	.st0{fill:none;stroke:#C1C1C1;stroke-width:2;stroke-linecap:square;stroke-miterlimit:10;}
	.st1{fill:none;stroke:#C1C1C1;stroke-width:3;stroke-linecap:square;stroke-miterlimit:10;}
	.st2{fill:none;stroke:#C1C1C1;stroke-width:4;stroke-linecap:square;stroke-miterlimit:10;}
	.st3{fill:#FFFFFF;stroke:#C1C1C1;stroke-miterlimit:10;}
</style>
<g>
	<g>
		<line class="st0" x1="42.5" y1="16" x2="42.5" y2="49.6"/>
	</g>
	<g>
		<line class="st0" x1="5" y1="15.8" x2="68" y2="15.8"/>
	</g>
	<g>
		<line class="st0" x1="21.5" y1="2.5" x2="8.6" y2="2.5"/>
	</g>
	<g>
		<line class="st0" x1="42.5" y1="2.5" x2="29.6" y2="2.5"/>
	</g>
	<g>
		<line class="st0" x1="63.5" y1="2.5" x2="50.6" y2="2.5"/>
	</g>
	<g>
		<line class="st1" x1="12.8" y1="53.5" x2="6.6" y2="53.5"/>
	</g>
	<g>
		<line class="st1" x1="65.8" y1="53.5" x2="59.6" y2="53.5"/>
	</g>
	<g>
		<path class="st2" d="M68.5,48.5c0,1.1-0.9,2-2,2h-61c-1.1,0-2-0.9-2-2v-41c0-1.1,0.9-2,2-2h61c1.1,0,2,0.9,2,2V48.5z"/>
	</g>
	<g>
		<path class="st0" d="M35.5,38c0,1.1-0.9,2-2,2h-19c-1.1,0-2-0.9-2-2V26c0-1.1,0.9-2,2-2h19c1.1,0,2,0.9,2,2V38z"/>
	</g>
	<line class="st0" x1="26.1" y1="28.7" x2="18.5" y2="36.3"/>
	<line class="st0" x1="31.5" y1="28.7" x2="23.9" y2="36.3"/>
	<circle class="st3" cx="15.9" cy="11.1" r="1.6"/>
	<circle class="st3" cx="25.9" cy="11.1" r="1.6"/>
	<circle class="st3" cx="35.9" cy="11.1" r="1.6"/>
	<circle class="st3" cx="45.9" cy="11.1" r="1.6"/>
	<circle class="st3" cx="55.9" cy="11.1" r="1.6"/>
</g>
</svg>
